# xmcd CD database file
#
# Track frame offsets:
#	183
#	15658
#	28388
#	41128
#	51435
#	66568
#	80100
#	92953
#	108953
#	123020
#
# Disc length: 2305 seconds
#
# Revision: 4
# Processed by: cddbd v1.5.2PL0 Copyright (c) Steve Scherf et al.
# Submitted via: CDex 1.51
#
DISCID=8e08ff0a
DTITLE=Canned Heat - The Best Of Canned Heat
DYEAR=1987
DGENRE=Blues
TTITLE0=On The Road Again
TTITLE1=Same All Over
TTITLE2=Let's Work Together
TTITLE3=Bullfrog Blues
TTITLE4=Time Was
TTITLE5=Boogie Music
TTITLE6=Going Up The Country
TTITLE7=Amphetamine Annie
TTITLE8=Rollin' And Tumblin'
TTITLE9=Fried Hockey Boogie
EXTD=YEAR: 1987
EXTT0=
EXTT1=
EXTT2=
EXTT3=
EXTT4=
EXTT5=
EXTT6=
EXTT7=
EXTT8=
EXTT9=
PLAYORDER=
